<?xml version="1.0" encoding="UTF-8" standalone="no"?>
<!-- Created with Inkscape (http://www.inkscape.org/) -->

<svg
   xmlns:dc="http://purl.org/dc/elements/1.1/"
   xmlns:cc="http://creativecommons.org/ns#"
   xmlns:rdf="http://www.w3.org/1999/02/22-rdf-syntax-ns#"
   xmlns:svg="http://www.w3.org/2000/svg"
   xmlns="http://www.w3.org/2000/svg"
   version="1.1"
   width="576"
   height="509"
   id="svg4882">
  <defs
     id="defs4884" />
  <metadata
     id="metadata4887">
    <rdf:RDF>
      <cc:Work
         rdf:about="">
        <dc:format>image/svg+xml</dc:format>
        <dc:type
           rdf:resource="http://purl.org/dc/dcmitype/StillImage" />
        <dc:title></dc:title>
      </cc:Work>
    </rdf:RDF>
  </metadata>
  <g
     transform="translate(-80.571434,-217.8622)"
     id="layer1">
    <path
       d="M 118.60042,683.8593 358.64863,264.27445"
       id="path4901"
       style="fill:#000000;fill-opacity:1;stroke:#000000;stroke-width:5;stroke-miterlimit:4;stroke-dasharray:none" />
    <path
       d="m 123.26274,697.84438 490.43929,0"
       id="path5411"
       style="fill:#000000;fill-opacity:1;stroke:#000000;stroke-width:5.00000048;stroke-linecap:butt;stroke-linejoin:miter;stroke-miterlimit:4;stroke-opacity:1;stroke-dasharray:none;stroke-dashoffset:0" />
    <path
       d="M 378.24427,263.84334 618.68515,684.50466"
       id="path5413"
       style="fill:#000000;fill-opacity:1;stroke:#000000;stroke-width:5;stroke-linecap:butt;stroke-linejoin:miter;stroke-miterlimit:4;stroke-opacity:1;stroke-dasharray:none;stroke-dashoffset:0" />
    <path
       d="m 368.46494,263.69353 0,275.16502"
       id="path5415"
       style="fill:#000000;fill-opacity:1;stroke:#000000;stroke-width:5.00000095;stroke-linecap:butt;stroke-linejoin:miter;stroke-miterlimit:4;stroke-opacity:1;stroke-dasharray:none;stroke-dashoffset:0" />
    <path
       d="M 121.35634,691.5184 364.23489,550.60591"
       id="path5417"
       style="fill:#000000;fill-opacity:1;stroke:#000000;stroke-width:5;stroke-linecap:butt;stroke-linejoin:miter;stroke-miterlimit:4;stroke-opacity:1;stroke-dasharray:none;stroke-dashoffset:0" />
    <path
       d="M 382.62286,556.13512 619.03738,692.83136"
       id="path5419"
       style="fill:#000000;fill-opacity:1;stroke:#000000;stroke-width:5.00000048;stroke-linecap:butt;stroke-linejoin:miter;stroke-miterlimit:4;stroke-opacity:1;stroke-dasharray:none;stroke-dashoffset:0" />
    <path
       d="m 306.32876,28.672464 c 0,10.599945 -8.59295,19.192898 -19.1929,19.192898 -10.59994,0 -19.19289,-8.592953 -19.19289,-19.192898 0,-10.599944 8.59295,-19.1928974 19.19289,-19.1928974 10.59995,0 19.1929,8.5929534 19.1929,19.1928974 z"
       transform="matrix(1.118421,0,0,1.118421,47.326115,215.47693)"
       id="path5421"
       style="fill:#000000;fill-opacity:1;stroke:none" />
    <path
       d="m 306.32876,28.672464 c 0,10.599945 -8.59295,19.192898 -19.1929,19.192898 -10.59994,0 -19.19289,-8.592953 -19.19289,-19.192898 0,-10.599944 8.59295,-19.1928974 19.19289,-19.1928974 10.59995,0 19.1929,8.5929534 19.1929,19.1928974 z"
       transform="matrix(1.118421,0,0,1.118421,47.32613,515.2397)"
       id="path5421-3"
       style="fill:#000000;fill-opacity:1;stroke:none" />
    <path
       d="m 306.32876,28.672464 c 0,10.599945 -8.59295,19.192898 -19.1929,19.192898 -10.59994,0 -19.19289,-8.592953 -19.19289,-19.192898 0,-10.599944 8.59295,-19.1928974 19.19289,-19.1928974 10.59995,0 19.1929,8.5929534 19.1929,19.1928974 z"
       transform="matrix(1.118421,0,0,1.118421,305.42011,665.8787)"
       id="path5421-9"
       style="fill:#000000;fill-opacity:1;stroke:none" />
    <path
       d="m 306.32876,28.672464 c 0,10.599945 -8.59295,19.192898 -19.1929,19.192898 -10.59994,0 -19.19289,-8.592953 -19.19289,-19.192898 0,-10.599944 8.59295,-19.1928974 19.19289,-19.1928974 10.59995,0 19.1929,8.5929534 19.1929,19.1928974 z"
       transform="matrix(1.118421,0,0,1.118421,-210.64157,665.75243)"
       id="path5421-2"
       style="fill:#000000;fill-opacity:1;stroke:none" />
  </g>
</svg>
